<?xml version="1.0" encoding="UTF-8" standalone="no"?>
<!-- Created with Inkscape (http://www.inkscape.org/) -->

<svg
   version="1.1"
   id="svg46"
   width="656.23975"
   height="459.70432"
   viewBox="0 0 656.23975 459.70432"
   sodipodi:docname="commonCauseColor.svg"
   inkscape:version="1.1 (c68e22c387, 2021-05-23)"
   xmlns:inkscape="http://www.inkscape.org/namespaces/inkscape"
   xmlns:sodipodi="http://sodipodi.sourceforge.net/DTD/sodipodi-0.dtd"
   xmlns="http://www.w3.org/2000/svg"
   xmlns:svg="http://www.w3.org/2000/svg">
  <defs
     id="defs50">
    <inkscape:path-effect
       effect="bspline"
       id="path-effect5581"
       is_visible="true"
       lpeversion="1"
       weight="33.333333"
       steps="2"
       helper_size="0"
       apply_no_weight="true"
       apply_with_weight="true"
       only_selected="false" />
  </defs>
  <sodipodi:namedview
     id="namedview48"
     pagecolor="#505050"
     bordercolor="#ffffff"
     borderopacity="1"
     inkscape:pageshadow="0"
     inkscape:pageopacity="0"
     inkscape:pagecheckerboard="1"
     showgrid="false"
     inkscape:zoom="1.285076"
     inkscape:cx="370.01702"
     inkscape:cy="277.02641"
     inkscape:current-layer="g52" />
  <g
     inkscape:groupmode="layer"
     inkscape:label="Image"
     id="g52"
     transform="translate(9.0804999,5.0804999)">
    <path
       style="fill:none;fill-opacity:0.966667;stroke:#000000;stroke-width:1.37561"
       d=""
       id="path4611" />
    <path
       style="fill:none;fill-opacity:0.966667;stroke:#000000;stroke-width:0.243176"
       d=""
       id="path4650" />
    <path
       style="fill:none;fill-opacity:0.966667;stroke:#000000;stroke-width:0.243176"
       d=""
       id="path4689" />
    <g
       id="g6838"
       inkscape:export-filename="C:\Users\mo\Pictures\icons\commonCauseColor.png"
       inkscape:export-xdpi="96"
       inkscape:export-ydpi="96"
       transform="matrix(0.99979624,0,0,1.000284,0.06500614,-0.06402482)">
      <path
         style="fill:#ff0000;fill-opacity:0.966667;stroke:#000000;stroke-width:5.50245"
         d="M 0.09931902,303.46017 C 0.18446923,179.15481 0.40846928,159.56956 1.6694851,166.17402 c 0.8089658,4.23689 3.0291883,11.91281 4.9338276,17.0576 1.9046394,5.14479 3.8568743,10.59222 4.3382983,12.10539 0.827811,2.60191 6.082533,12.28427 11.405931,21.01661 3.0959,5.07841 7.62362,10.58137 20.618175,25.0592 5.77569,6.43496 17.821449,19.99487 26.768353,30.13314 8.946904,10.13826 16.725658,18.43321 17.286121,18.43321 0.560464,0 1.019025,0.57424 1.019025,1.27611 0,0.70186 2.599908,4.05265 5.777573,7.4462 3.177666,3.39354 8.748901,9.53726 12.380511,13.65269 3.63162,4.11544 8.46002,9.26295 10.72978,11.43891 2.26976,2.17597 4.12684,4.46587 4.12684,5.08866 0,0.6228 2.3523,3.44725 5.22733,6.27657 2.87503,2.82932 7.70343,7.98882 10.72978,11.46556 3.02635,3.47675 6.34116,7.23029 7.36625,8.34121 1.02509,1.11093 7.95511,8.85708 15.40006,17.21367 7.44495,8.35659 14.03455,15.73675 14.64355,16.40035 0.60902,0.6636 4.07862,4.61371 7.71024,8.77802 3.63162,4.16432 8.58382,9.73396 11.0049,12.37698 2.42108,2.64303 6.47591,7.11167 9.01074,9.93031 5.0749,5.64311 12.72041,14.1246 20.73999,23.00777 l 5.21589,5.77757 H 114.05133 0 Z"
         id="path1255" />
      <path
         style="fill:#800080;fill-opacity:0.966667;stroke:#000000;stroke-width:5.50245"
         d="M 0.12844173,59.701593 0,0.5502451 59.701593,0.65576395 C 110.96109,0.74636202 118.39169,0.95729925 112.25,2.1474906 98.886736,4.737142 90.810316,7.3339267 80.982942,12.200684 75.588818,14.871986 70.636612,17.061462 69.97804,17.066184 68.142673,17.079345 49.058685,31.603391 42.240132,38.176379 23.317657,56.417371 6.8084361,86.35773 1.6990798,111.69975 0.4334909,117.97698 0.24115471,111.60943 0.12844173,59.701593 Z"
         id="path1294" />
      <path
         style="fill:#800080;fill-opacity:0.966667;stroke:#000000;stroke-width:2.75123"
         d="m 227.32685,31.083855 c -0.71499,-0.905158 -1.53741,-1.645742 -1.8276,-1.645742 -0.29019,0 -0.87275,-0.309513 -1.29458,-0.687807 -1.68057,-1.507107 -2.42526,-2.063419 -2.76215,-2.063419 -0.19399,0 -1.04662,-0.742831 -1.89473,-1.650735 -0.84811,-0.907904 -1.82591,-1.650735 -2.17289,-1.650735 -0.34699,0 -1.20457,-0.619026 -1.90575,-1.375613 -0.70119,-0.756587 -1.6798,-1.375613 -2.17471,-1.375613 -0.49491,0 -0.89983,-0.201394 -0.89983,-0.447544 0,-0.246149 -0.86664,-0.787585 -1.92586,-1.203191 -1.05922,-0.415606 -1.92586,-0.929486 -1.92586,-1.141954 0,-0.212469 -0.86663,-0.548889 -1.92586,-0.7476 -1.05922,-0.198711 -1.92585,-0.597683 -1.92585,-0.886605 0,-0.288921 -0.49522,-0.525312 -1.10049,-0.525312 -0.60527,0 -1.10049,-0.24761 -1.10049,-0.550245 0,-0.302635 -0.49522,-0.550245 -1.10049,-0.550245 -0.60527,0 -1.10049,-0.24761 -1.10049,-0.550245 0,-0.302635 -0.37142,-0.550245 -0.82537,-0.550245 -0.45395,0 -0.82537,-0.24761 -0.82537,-0.550245 0,-0.302635 -0.3891,-0.550245 -0.86467,-0.550245 -0.47557,0 -1.23609,-0.371416 -1.69004,-0.825368 -0.45395,-0.453952 -1.42671,-0.825368 -2.16168,-0.825368 -0.73497,0 -1.33631,-0.24761 -1.33631,-0.550245 0,-0.3026345 -0.74283,-0.5502448 -1.65073,-0.5502448 -0.90791,0 -1.65074,-0.2476103 -1.65074,-0.5502451 0,-0.3026348 -0.61902,-0.5502451 -1.37561,-0.5502451 -0.75659,0 -1.37561,-0.2476103 -1.37561,-0.5502451 0,-0.3026348 -0.7222,-0.5502451 -1.60488,-0.5502451 -0.88269,0 -1.69275,-0.2635833 -1.80013,-0.5857408 -0.10739,-0.322157 -1.24227,-0.726175 -2.52196,-0.8978179 -1.27969,-0.1716424 -2.32671,-0.5270847 -2.32671,-0.7898719 0,-0.2627872 -0.61902,-0.4777949 -1.37561,-0.4777949 -0.75659,0 -1.37561,-0.2476103 -1.37561,-0.5502451 0,-0.3026348 -0.86664,-0.5502451 -1.92586,-0.5502451 -1.05922,0 -1.92586,-0.2476103 -1.92586,-0.5502451 0,-0.3026348 -1.36186,-0.5502451 -3.02635,-0.5502451 -1.66449,0 -3.02635,-0.2476103 -3.02635,-0.5502451 0,-0.3026348 -1.34724,-0.5502451 -2.99387,-0.5502451 -1.64663,0 -3.14691,-0.2476102 -3.33394,-0.55024505 -0.22604,-0.36573642 23.29882,-0.5502451 70.15625,-0.5502451 46.85743,0 70.38228,0.18450868 70.15625,0.5502451 -0.18704,0.30263485 -1.81112,0.55024505 -3.60907,0.55024505 -1.8125,0 -3.269,0.2451608 -3.269,0.5502451 0,0.3026348 -1.36185,0.5502451 -3.02635,0.5502451 -1.66449,0 -3.02634,0.2476103 -3.02634,0.5502451 0,0.3026348 -0.74283,0.5502451 -1.65074,0.5502451 -0.9079,0 -1.65073,0.2476103 -1.65073,0.5502451 0,0.3026348 -0.61903,0.5502451 -1.37562,0.5502451 -0.75658,0 -1.37561,0.2157105 -1.37561,0.4793567 0,0.2636459 -1.22788,0.6422398 -2.72861,0.8413196 -1.50074,0.1990798 -2.8772,0.6023951 -3.05882,0.8962563 -0.18162,0.2938611 -0.93463,0.5342929 -1.67335,0.5342929 -0.73873,0 -1.34314,0.2476103 -1.34314,0.5502451 0,0.3026348 -0.74283,0.5502451 -1.65074,0.5502451 -0.9079,0 -1.65073,0.2476103 -1.65073,0.5502451 0,0.3026348 -0.61903,0.5502451 -1.37561,0.5502451 -0.75659,0 -1.37562,0.2476103 -1.37562,0.5502448 0,0.302635 -0.36301,0.550245 -0.8067,0.550245 -0.99487,0 -4.903,1.773151 -5.15428,2.338542 -0.10089,0.226976 -0.65801,0.412684 -1.23806,0.412684 -0.58005,0 -1.05463,0.24761 -1.05463,0.550245 0,0.302635 -0.49522,0.550245 -1.10049,0.550245 -0.60527,0 -1.10049,0.24761 -1.10049,0.550245 0,0.302635 -0.37142,0.550245 -0.82537,0.550245 -0.45395,0 -0.82537,0.247611 -0.82537,0.550245 0,0.302635 -0.36971,0.550245 -0.82159,0.550245 -1.14674,0 -5.23111,1.819843 -5.23111,2.330784 0,0.231243 -0.43644,0.420442 -0.96989,0.420442 -0.53344,0 -1.43475,0.619026 -2.00293,1.375613 -0.56817,0.756587 -1.33305,1.375612 -1.69973,1.375612 -0.36667,0 -1.44398,0.742831 -2.39401,1.650736 -0.95004,0.907904 -1.86421,1.650735 -2.03149,1.650735 -0.16728,0 -0.97173,0.619026 -1.78768,1.375613 -0.81594,0.756587 -1.76771,1.375613 -2.11503,1.375613 -0.34732,0 -1.21649,0.740584 -1.93148,1.645742 -0.71499,0.905158 -1.7333,1.647989 -2.26292,1.650735 -0.52961,0.0027 -0.96292,0.252603 -0.96292,0.555238 0,0.988044 -0.80059,0.571623 -2.12536,-1.105483 z"
         id="path1333" />
      <path
         style="fill:#0000ff;fill-opacity:0.966667;stroke:#000000;stroke-width:2.75123"
         d="m 408.28186,29.988358 c -0.75658,-0.889801 -1.67387,-1.625226 -2.03841,-1.634278 -0.36454,-0.0091 -1.28182,-0.635483 -2.0384,-1.39207 -0.75659,-0.756587 -1.51293,-1.375613 -1.68076,-1.375613 -0.16782,0 -1.08244,-0.742831 -2.03248,-1.650735 -0.95003,-0.907905 -2.02734,-1.650736 -2.39402,-1.650736 -0.36667,0 -1.13155,-0.619025 -1.69972,-1.375612 -0.56818,-0.756587 -1.46949,-1.375613 -2.00293,-1.375613 -0.53344,0 -0.96989,-0.24761 -0.96989,-0.550245 0,-0.302635 -0.49523,-0.550245 -1.1005,-0.550245 -0.60526,0 -1.10049,-0.23639 -1.10049,-0.525312 0,-0.288922 -0.86663,-0.687894 -1.92585,-0.886605 -1.05922,-0.198711 -1.92586,-0.581347 -1.92586,-0.850301 0,-0.268954 -0.37142,-0.489008 -0.82537,-0.489008 -0.45395,0 -0.82537,-0.24761 -0.82537,-0.550245 0,-0.302635 -0.49522,-0.550245 -1.10049,-0.550245 -0.60527,0 -1.10049,-0.24761 -1.10049,-0.550245 0,-0.302635 -0.49522,-0.550245 -1.10049,-0.550245 -0.60527,0 -1.10049,-0.24761 -1.10049,-0.550245 0,-0.302635 -0.61902,-0.550245 -1.37561,-0.550245 -0.75659,0 -1.37561,-0.220054 -1.37561,-0.489008 0,-0.268954 -0.86664,-0.65159 -1.92586,-0.850301 -1.05922,-0.198711 -1.92586,-0.597683 -1.92586,-0.886605 0,-0.2889215 -0.49522,-0.5253118 -1.10049,-0.5253118 -0.60527,0 -1.10049,-0.2476103 -1.10049,-0.5502451 0,-0.3026348 -0.86663,-0.5502451 -1.92586,-0.5502451 -1.05922,0 -1.92585,-0.2476103 -1.92585,-0.5502451 0,-0.3026348 -0.74284,-0.5502451 -1.65074,-0.5502451 -0.9079,0 -1.65073,-0.2297933 -1.65073,-0.5106516 0,-0.2808583 -1.36186,-0.680804 -3.02635,-0.8887686 -1.66449,-0.2079646 -3.02635,-0.5971969 -3.02635,-0.8649612 0,-0.2677643 -0.61903,-0.4868441 -1.37561,-0.4868441 -0.75659,0 -1.37562,-0.2476103 -1.37562,-0.5502451 0,-0.3026348 -0.74283,-0.5502451 -1.65073,-0.5502451 -0.90791,0 -1.65074,-0.2476103 -1.65074,-0.5502451 0,-0.3026348 -1.22344,-0.5502451 -2.71875,-0.5502451 -1.49531,0 -2.87178,-0.2476103 -3.05882,-0.5502451 -0.18704,-0.3026348 -1.50161,-0.5540366 -2.92126,-0.5586708 -1.41966,-0.00463 -2.95261,-0.2484529 -3.40656,-0.54181935 -0.5352,-0.34587609 24.03189,-0.53339357 69.88113,-0.53339357 45.84924,0 70.41633,0.18751748 69.88113,0.53339357 -0.45396,0.29336645 -1.98691,0.53718515 -3.40656,0.54181935 -1.41966,0.00463 -2.73422,0.256036 -2.92126,0.5586708 -0.18704,0.3026348 -1.56351,0.5502451 -3.05883,0.5502451 -1.49531,0 -2.71875,0.2476103 -2.71875,0.5502451 0,0.3026348 -0.74283,0.5502451 -1.65073,0.5502451 -0.90791,0 -1.65074,0.2476103 -1.65074,0.5502451 0,0.3026348 -0.61902,0.5502451 -1.37561,0.5502451 -0.75659,0 -1.37561,0.2190798 -1.37561,0.4868441 0,0.2677643 -1.36186,0.6569966 -3.02635,0.8649612 -1.66449,0.2079646 -3.02635,0.6079103 -3.02635,0.8887686 0,0.2808583 -0.60441,0.5106516 -1.34314,0.5106516 -0.73872,0 -1.49617,0.2476103 -1.68321,0.5502451 -0.18704,0.3026348 -0.94448,0.5502451 -1.68321,0.5502451 -0.73872,0 -1.34313,0.2476103 -1.34313,0.5502451 0,0.3026348 -0.74284,0.5502451 -1.65074,0.5502451 -0.9079,0 -1.65074,0.2476103 -1.65074,0.5502448 0,0.302635 -0.28483,0.550245 -0.63296,0.550245 -0.86777,0 -6.75148,2.882353 -6.97876,3.418803 -0.10088,0.238102 -0.658,0.432913 -1.23805,0.432913 -0.58005,0 -1.05464,0.24761 -1.05464,0.550245 0,0.302635 -0.37141,0.550245 -0.82536,0.550245 -0.45396,0 -0.82537,0.247611 -0.82537,0.550245 0,0.302635 -0.47754,0.550245 -1.06119,0.550245 -0.58365,0 -1.4326,0.371416 -1.88655,0.825368 -0.45395,0.453952 -1.21448,0.825368 -1.69004,0.825368 -0.47557,0 -0.86467,0.24761 -0.86467,0.550245 0,0.302635 -0.37142,0.550245 -0.82537,0.550245 -0.45395,0 -0.82537,0.24761 -0.82537,0.550245 0,0.302635 -0.49522,0.550245 -1.10049,0.550245 -0.60527,0 -1.10049,0.230925 -1.10049,0.513165 0,0.282241 -0.46638,0.661188 -1.03639,0.842105 -0.57002,0.180916 -1.80582,1.064238 -2.74622,1.962937 -0.9404,0.898699 -1.92131,1.633999 -2.1798,1.633999 -0.25848,0 -0.92859,0.506777 -1.48914,1.126171 -0.56054,0.619395 -1.82787,1.509925 -2.81628,1.978956 -0.98841,0.46903 -1.9467,1.32411 -2.12954,1.900176 -0.55834,1.759177 -4.0641,1.392006 -5.76072,-0.603342 z"
         id="path1372" />
      <path
         style="fill:#008000;fill-opacity:0.966667;stroke:#000000;stroke-width:2.75123"
         d="m 639.3848,114.45098 c 0,-1.66449 -0.21187,-3.02635 -0.47082,-3.02635 -0.25896,0 -0.61558,-1.91405 -0.79251,-4.25345 -0.17693,-2.33939 -0.58409,-4.34091 -0.90479,-4.44781 -0.32071,-0.1069 -0.5831,-0.77815 -0.5831,-1.49165 0,-0.71351 -0.24761,-1.450318 -0.55025,-1.637357 -0.30263,-0.18704 -0.55024,-0.944485 -0.55024,-1.683211 0,-0.738726 -0.24761,-1.343137 -0.55025,-1.343137 -0.30263,0 -0.55024,-0.604412 -0.55024,-1.343138 0,-0.738726 -0.24761,-1.496171 -0.55025,-1.68321 -0.30263,-0.18704 -0.55024,-0.944485 -0.55024,-1.683211 0,-0.738726 -0.2298,-1.343137 -0.51065,-1.343137 -0.28086,0 -0.68081,-1.361857 -0.88877,-3.026348 -0.20797,-1.664492 -0.55099,-3.026348 -0.76226,-3.026348 -0.21128,0 -0.72419,-0.866636 -1.13979,-1.925858 -0.41561,-1.059222 -0.95704,-1.925858 -1.2032,-1.925858 -0.24614,0 -0.44754,-0.495221 -0.44754,-1.10049 0,-0.60527 -0.24761,-1.100491 -0.55024,-1.100491 -0.30264,0 -0.55025,-0.284834 -0.55025,-0.632963 0,-1.081408 -2.92256,-6.748079 -3.96363,-7.685257 -0.54372,-0.489448 -0.98857,-1.294182 -0.98857,-1.788296 0,-0.494109 -0.22794,-0.898385 -0.50653,-0.898385 -0.27859,0 -0.66233,-0.709371 -0.85276,-1.576381 -0.19042,-0.867005 -0.82912,-2.094706 -1.41933,-2.728214 -0.5902,-0.633514 -1.0731,-1.297253 -1.0731,-1.474982 0,-0.177729 -0.61903,-0.942168 -1.37561,-1.698755 -0.75659,-0.756587 -1.37562,-1.71376 -1.37562,-2.127055 0,-0.413295 -0.74283,-1.376493 -1.65073,-2.140448 -0.9079,-0.763949 -1.65074,-1.663851 -1.65074,-1.99978 0,-0.33593 -0.61902,-1.229806 -1.37561,-1.986393 -0.75659,-0.756587 -1.37561,-1.614738 -1.37561,-1.907002 0,-0.747346 -17.45124,-18.126922 -18.20167,-18.126922 -0.33846,0 -1.30929,-0.742831 -2.1574,-1.650735 -0.84811,-0.907905 -1.80283,-1.650735 -2.12161,-1.650735 -0.31878,0 -1.19862,-0.619026 -1.95521,-1.375613 -0.75658,-0.756587 -1.51292,-1.375613 -1.68075,-1.375613 -0.16783,0 -1.08244,-0.742831 -2.03248,-1.650735 -0.95003,-0.907905 -2.04406,-1.650736 -2.43115,-1.650736 -0.38711,0 -1.19075,-0.619025 -1.78589,-1.375612 -0.59513,-0.756587 -1.47974,-1.375613 -1.96579,-1.375613 -0.48606,0 -0.88374,-0.24761 -0.88374,-0.550245 0,-0.302635 -0.49522,-0.550245 -1.10049,-0.550245 -0.60527,0 -1.10049,-0.23639 -1.10049,-0.525312 0,-0.288922 -0.86663,-0.687894 -1.92586,-0.886605 -1.05922,-0.198711 -1.92585,-0.535131 -1.92585,-0.7476 0,-0.212468 -0.86664,-0.726348 -1.92586,-1.141954 -1.05922,-0.415606 -1.92586,-0.957042 -1.92586,-1.203191 0,-0.246149 -0.49522,-0.447544 -1.10049,-0.447544 -0.60527,0 -1.10049,-0.24761 -1.10049,-0.550245 0,-0.302635 -0.61903,-0.550245 -1.37561,-0.550245 -0.75659,0 -1.37562,-0.220054 -1.37562,-0.489008 0,-0.268954 -0.86663,-0.65159 -1.92585,-0.850301 -1.05922,-0.198711 -1.92586,-0.597683 -1.92586,-0.886605 0,-0.2889215 -0.49522,-0.5253118 -1.10049,-0.5253118 -0.60527,0 -1.10049,-0.2476103 -1.10049,-0.5502451 0,-0.3026348 -0.74283,-0.5502451 -1.65074,-0.5502451 -0.9079,0 -1.65073,-0.2476103 -1.65073,-0.5502451 0,-0.3026348 -0.86664,-0.5502451 -1.92586,-0.5502451 -1.05922,0 -1.92586,-0.2297933 -1.92586,-0.5106516 0,-0.2808583 -1.36185,-0.680804 -3.02635,-0.8887686 -1.66449,-0.2079646 -3.02634,-0.5971969 -3.02634,-0.8649612 0,-0.2677643 -0.61903,-0.4868441 -1.37562,-0.4868441 -0.75658,0 -1.37561,-0.2476103 -1.37561,-0.5502451 0,-0.3026348 -0.74283,-0.5502451 -1.65073,-0.5502451 -0.90791,0 -1.65074,-0.2476103 -1.65074,-0.5502451 0,-0.3026348 -1.36186,-0.5502451 -3.02635,-0.5502451 -1.66449,0 -3.02635,-0.2476103 -3.02635,-0.5502451 0,-0.3026348 -1.34724,-0.5502451 -2.99387,-0.5502451 -1.64663,0 -3.14691,-0.2476102 -3.33394,-0.55024505 -0.22592,-0.36553338 19.61969,-0.5502451 59.11887,-0.5502451 h 59.45894 V 58.876225 c 0,38.700571 -0.18685,58.601105 -0.55024,58.601105 -0.30264,0 -0.55025,-1.36186 -0.55025,-3.02635 z"
         id="path1411" />
      <path
         style="fill:#ffff00;fill-opacity:0.966667;stroke:#000000;stroke-width:2.75123"
         d="m 412.75401,447.76195 c 0.41535,-0.52961 1.43611,-1.61939 2.26836,-2.42175 0.83224,-0.80235 1.51317,-1.61593 1.51317,-1.80795 0,-0.41323 1.3501,-1.91407 5.64001,-6.26973 1.74015,-1.76683 3.16391,-3.41957 3.16391,-3.67278 0,-0.2532 1.05234,-1.51263 2.33854,-2.79874 1.2862,-1.2861 2.64427,-2.66741 3.01793,-3.06959 0.37366,-0.40217 1.42572,-1.47404 2.33792,-2.38195 0.9122,-0.9079 1.65882,-1.85235 1.65916,-2.09877 3.4e-4,-0.24642 1.9815,-2.44228 4.40258,-4.87967 2.42108,-2.4374 4.40196,-4.64481 4.40196,-4.90536 0,-0.26054 1.73327,-2.21734 3.85171,-4.34843 2.11845,-2.13109 3.85172,-4.09227 3.85172,-4.35818 0,-0.2659 2.10469,-2.60241 4.67708,-5.19224 2.5724,-2.58982 4.67709,-4.84131 4.67709,-5.0033 0,-0.45636 2.16819,-2.8923 5.64001,-6.33648 1.74015,-1.7263 3.16391,-3.55107 3.16391,-4.05502 0,-0.50397 0.25526,-0.9163 0.56724,-0.9163 0.31198,0 1.36433,-0.8949 2.33854,-1.98867 0.97422,-1.09376 2.57604,-2.74301 3.5596,-3.665 0.98356,-0.92199 1.7883,-1.89461 1.7883,-2.16139 0,-0.5081 0.87687,-1.68244 2.09336,-2.80351 2.70319,-2.49116 6.71056,-6.82923 6.71056,-7.26435 0,-0.17293 1.98088,-2.29263 4.40196,-4.71046 2.42108,-2.41782 4.40196,-4.61971 4.40196,-4.89307 0,-0.27336 2.10469,-2.61598 4.67708,-5.20581 2.5724,-2.58983 4.67708,-4.94124 4.67708,-5.22535 0,-0.28412 1.73328,-2.23616 3.85172,-4.33787 2.11844,-2.10171 3.85172,-4.1704 3.85172,-4.59709 0,-0.42669 0.53053,-1.13998 1.17897,-1.58509 0.64843,-0.4451 1.70077,-1.37672 2.33854,-2.07027 0.63776,-0.69354 2.21191,-2.32247 3.49811,-3.61983 1.2862,-1.29736 2.33854,-2.53554 2.33854,-2.75151 0,-0.42628 0.95217,-1.65943 2.09337,-2.71111 2.63341,-2.42686 6.71055,-6.82724 6.71055,-7.24258 0,-0.16094 1.98089,-2.3057 4.40197,-4.76614 2.42107,-2.46044 4.40196,-4.70088 4.40196,-4.97877 0,-0.27789 1.85707,-2.33244 4.12683,-4.56567 2.26977,-2.23323 4.12684,-4.30924 4.12684,-4.61336 0,-0.30412 1.98088,-2.53916 4.40196,-4.96675 2.42108,-2.4276 4.40421,-4.73569 4.40695,-5.12909 0.003,-0.3934 0.79141,-1.3343 1.75258,-2.09089 0.96116,-0.75658 2.01126,-1.70466 2.33354,-2.10682 0.32229,-0.40218 1.63832,-1.78349 2.92452,-3.0696 1.2862,-1.2861 2.33854,-2.51507 2.33854,-2.73103 0,-0.51004 1.04115,-1.77088 2.70283,-3.27316 0.72997,-0.65995 1.84421,-1.78996 2.47611,-2.51115 0.63188,-0.72118 1.45839,-1.63203 1.83669,-2.02411 0.37829,-0.39208 0.6878,-0.85551 0.6878,-1.02983 0,-0.17433 2.10469,-2.44069 4.67709,-5.03635 2.57239,-2.59567 4.67708,-4.97142 4.67708,-5.27945 0,-0.30803 1.98088,-2.50663 4.40196,-4.88577 2.42108,-2.37915 4.40196,-4.58038 4.40196,-4.89163 0,-0.31125 1.98088,-2.55213 4.40196,-4.97972 2.42108,-2.4276 4.40196,-4.65583 4.40196,-4.95163 0,-0.2958 1.85708,-2.3769 4.12684,-4.62467 2.26976,-2.24777 4.12684,-4.24927 4.12684,-4.44777 0,-0.1985 0.30951,-0.70605 0.6878,-1.12788 1.60611,-1.79096 2.06342,-2.43833 2.06342,-2.92098 0,-0.28135 0.74059,-1.09653 1.64575,-1.81152 0.90515,-0.715 1.64798,-1.62031 1.65073,-2.01181 0.003,-0.3915 0.62402,-1.37941 1.38061,-2.19536 0.75658,-0.81594 1.37561,-1.69624 1.37561,-1.9562 0,-0.25997 0.70808,-1.13411 1.5735,-1.94254 0.86543,-0.80843 1.74875,-2.02202 1.96294,-2.69687 0.21419,-0.67484 0.62036,-1.22699 0.9026,-1.22699 0.28224,0 0.51317,-0.49522 0.51317,-1.10049 0,-0.60527 0.24761,-1.10049 0.55024,-1.10049 0.30264,0 0.55025,-0.37142 0.55025,-0.82537 0,-0.45395 0.24761,-0.82537 0.55024,-0.82537 0.30264,0 0.55025,-0.49522 0.55025,-1.10049 0,-0.60527 0.24761,-1.10049 0.55024,-1.10049 0.30264,0 0.55025,-0.49522 0.55025,-1.10049 0,-0.60527 0.23639,-1.10049 0.52531,-1.10049 0.28892,0 0.68789,-0.86663 0.8866,-1.92585 0.19871,-1.05923 0.58135,-1.92586 0.8503,-1.92586 0.26896,0 0.48901,-0.49522 0.48901,-1.10049 0,-0.60527 0.24761,-1.10049 0.55025,-1.10049 0.30263,0 0.55024,-0.61903 0.55024,-1.37562 0,-0.75658 0.24761,-1.37561 0.55025,-1.37561 0.30263,0 0.55024,-0.47458 0.55024,-1.05463 0,-0.58005 0.26359,-1.1425 0.58574,-1.24989 0.32216,-0.10738 0.72618,-1.24226 0.89782,-2.52195 0.17165,-1.27969 0.52709,-2.32671 0.78987,-2.32671 0.26279,0 0.4778,-0.61903 0.4778,-1.37562 0,-0.75658 0.24761,-1.37561 0.55024,-1.37561 0.30264,0 0.55025,-0.85202 0.55025,-1.89338 0,-1.04137 0.24761,-2.04642 0.55024,-2.23346 0.30264,-0.18704 0.55025,-0.94448 0.55025,-1.68321 0,-0.73872 0.24761,-1.34314 0.55024,-1.34314 0.30264,0 0.55025,-0.5695 0.55025,-1.26556 0,-0.69606 0.26422,-1.52978 0.58714,-1.85271 0.32293,-0.32293 0.73009,-2.47714 0.90479,-4.78713 0.17471,-2.30999 0.52951,-4.19999 0.78847,-4.19999 0.25895,0 0.47082,-1.47105 0.47082,-3.26899 0,-1.79795 0.24761,-3.42203 0.55025,-3.60907 0.3663,-0.22639 0.55024,48.23244 0.55024,144.95711 V 448.72488 H 526.24206 c -108.72393,0 -114.20675,-0.0465 -113.48805,-0.96293 z"
         id="path1450" />
      <path
         style="fill:#ff6600;fill-opacity:0.966667;stroke:#000000;stroke-width:2.75123"
         d="m 232.82282,447.76195 c 0.41478,-0.52961 1.18793,-1.36339 1.71811,-1.85284 0.53018,-0.48945 0.96397,-1.09977 0.96397,-1.35626 0,-0.49283 0.23839,-0.75678 5.48302,-6.071 1.8265,-1.85073 3.3209,-3.71505 3.3209,-4.14293 0,-0.42788 0.53054,-1.14214 1.17897,-1.58724 0.64844,-0.4451 1.70078,-1.37834 2.33855,-2.07386 0.63776,-0.69551 1.9643,-2.05565 2.94786,-3.02253 0.98357,-0.96688 1.7883,-1.96755 1.7883,-2.22372 0,-0.25616 1.67137,-2.16533 3.71415,-4.2426 4.16647,-4.23679 5.08977,-5.28279 5.08977,-5.76613 0,-0.18357 1.85708,-2.1669 4.12684,-4.40739 2.26976,-2.24049 4.12684,-4.32656 4.12684,-4.63572 0,-0.30917 1.98088,-2.54834 4.40196,-4.97593 2.42108,-2.4276 4.40196,-4.65176 4.40196,-4.94259 0,-0.29083 1.98088,-2.49376 4.40196,-4.89539 2.42108,-2.40164 4.40937,-4.69903 4.41842,-5.10531 0.009,-0.40628 0.77253,-1.35772 1.69662,-2.11431 0.92409,-0.75659 2.21663,-1.96913 2.87233,-2.69454 0.65569,-0.72541 1.74929,-1.8903 2.43022,-2.58865 0.68092,-0.69835 1.23805,-1.41364 1.23805,-1.58952 0,-0.34289 1.69056,-2.28058 3.73277,-4.27843 3.91006,-3.82514 5.07115,-5.08107 5.07115,-5.48533 0,-0.24755 1.05234,-1.54344 2.33854,-2.87977 1.2862,-1.33632 2.61483,-2.75356 2.95252,-3.14942 0.33768,-0.39587 1.14242,-1.08393 1.78829,-1.52903 0.64588,-0.44511 1.17433,-1.11487 1.17433,-1.48837 0,-0.65424 7.85521,-8.98238 8.4723,-8.98238 0.51021,0 5.28382,4.94851 5.28382,5.47742 0,0.27294 2.10469,2.61521 4.67709,5.20504 2.57239,2.58983 4.67708,4.93059 4.67708,5.2017 0,0.2711 1.73327,2.25042 3.85172,4.39848 2.11844,2.14806 3.85171,4.11798 3.85171,4.37759 0,0.25961 1.05234,1.48946 2.33854,2.73301 1.2862,1.24354 2.95757,3.01118 3.71416,3.92808 0.75658,0.9169 1.80893,1.8135 2.33854,1.99244 0.52961,0.17894 0.96293,0.69053 0.96293,1.13686 0,0.90387 0.7314,1.90603 2.69454,3.692 2.5101,2.28359 6.10938,6.26612 6.10938,6.75991 0,0.2046 1.85708,2.1992 4.12684,4.43244 2.26976,2.23324 4.12684,4.32608 4.12684,4.65076 0,0.32467 1.98088,2.55529 4.40196,4.95693 2.42108,2.40163 4.40196,4.5822 4.40196,4.8457 0,0.2635 1.98088,2.49489 4.40196,4.95864 2.42108,2.46375 4.40196,4.74173 4.40196,5.06217 0,0.32045 0.80473,1.30028 1.7883,2.17739 0.98356,0.87712 2.0359,1.85732 2.33854,2.17823 0.30263,0.3209 1.60259,1.64104 2.88878,2.93364 1.2862,1.2926 2.33855,2.58865 2.33855,2.88011 0,0.47782 1.43301,2.04467 5.07115,5.54479 1.65568,1.59286 2.63228,2.78903 2.63228,3.2241 0,0.19399 0.68093,1.01793 1.51317,1.83099 0.83225,0.81305 2.11346,2.15044 2.84714,2.97199 l 1.33397,1.49371 h -89.02787 c -84.70892,0 -88.99129,-0.0467 -88.27374,-0.96293 z"
         id="path1528" />
      <path
         style="fill:#1a1a1a;fill-opacity:0.966667;stroke:#000000;stroke-width:3.89082"
         d="m 228.57464,431.14084 c -0.7429,-0.54322 -1.35073,-1.30039 -1.35073,-1.68258 0,-0.3822 -1.10616,-1.73894 -2.45813,-3.01499 -1.35198,-1.27605 -4.08036,-4.25139 -6.06307,-6.61187 -1.98271,-2.36048 -4.81601,-5.58148 -6.29621,-7.15778 -2.27531,-2.42301 -6.51378,-7.1628 -11.64017,-13.01694 -0.64198,-0.73313 -4.14372,-4.62627 -7.78164,-8.65142 -3.63792,-4.02515 -7.13965,-7.91495 -7.78164,-8.64401 -5.96376,-6.77258 -8.8593,-9.97481 -13.03425,-14.41478 -2.67494,-2.84475 -4.86352,-5.44873 -4.86352,-5.78663 0,-0.33791 -0.62488,-1.07195 -1.38862,-1.63121 -0.76375,-0.55925 -3.49547,-3.46804 -6.0705,-6.46397 -6.01963,-7.00357 -9.17448,-10.48053 -13.74585,-15.14929 -2.03296,-2.07626 -3.69628,-4.08372 -3.69628,-4.46102 0,-0.3773 -1.31316,-1.9087 -2.91812,-3.40312 -1.60496,-1.49441 -4.31871,-4.44704 -6.03055,-6.5614 -1.71184,-2.11435 -4.42511,-5.07933 -6.02949,-6.58883 -1.60438,-1.5095 -2.91763,-3.02227 -2.91834,-3.36172 -7e-4,-0.33945 -1.58341,-2.2654 -3.51712,-4.2799 -11.41518,-11.8921 -13.60377,-14.28641 -13.60377,-14.88249 0,-0.36338 -1.34488,-1.87571 -2.98863,-3.36073 -1.64374,-1.48503 -3.53076,-3.47405 -4.19335,-4.42005 -1.480361,-2.1135 -9.034964,-10.55442 -14.022988,-15.66818 -2.032954,-2.0842 -3.69628,-4.04239 -3.69628,-4.35153 0,-0.30915 -2.101043,-2.61799 -4.668984,-5.13077 -2.567941,-2.51279 -4.668984,-4.82183 -4.668984,-5.1312 0,-0.30939 -1.92576,-2.65405 -4.279466,-5.21038 -2.353705,-2.55633 -5.876787,-6.39874 -7.829069,-8.53869 -1.952283,-2.13995 -5.629305,-6.10584 -8.171161,-8.81307 -2.541855,-2.70723 -4.629172,-5.15845 -4.638482,-5.44715 -0.0093,-0.2887 -1.760631,-2.264 -3.891825,-4.38956 -2.131193,-2.12557 -4.062862,-4.45689 -4.292597,-5.18072 -0.229736,-0.72383 -0.929631,-1.51251 -1.555324,-1.7526 -0.625693,-0.24011 -1.137624,-0.90678 -1.137624,-1.48149 0,-0.57472 -0.612804,-1.73594 -1.361787,-2.58052 -3.248668,-3.66324 -6.239654,-7.85853 -6.750771,-9.46891 -0.303669,-0.95678 -0.822652,-1.7396 -1.153297,-1.7396 -0.330645,0 -1.063445,-1.40069 -1.628442,-3.11265 -0.564998,-1.71196 -1.25222,-3.11266 -1.527159,-3.11266 -0.274939,0 -1.129493,-1.75087 -1.899009,-3.89082 -0.769516,-2.13995 -1.666277,-3.89082 -1.992801,-3.89082 -0.326526,0 -1.039553,-2.10104 -1.584508,-4.66899 -0.544955,-2.56794 -1.233515,-4.66898 -1.530137,-4.66898 -0.29662,0 -1.151823,-2.85036 -1.900449,-6.33414 -0.748627,-3.48378 -1.661799,-6.89797 -2.029272,-7.5871 -1.096274,-2.05585 -2.321257,-16.54131 -2.32929,-27.54389 -0.0079,-10.79013 1.429931,-25.45698 2.495576,-25.45698 0.343523,0 0.624588,-0.71593 0.624588,-1.59094 0,-2.19923 2.465294,-11.939116 3.142658,-12.416014 0.30395,-0.213995 0.812781,-1.61469 1.130733,-3.112656 0.705575,-3.324162 4.81108,-12.308295 6.309123,-13.806337 0.599471,-0.599471 1.089947,-1.565183 1.089947,-2.146027 0,-0.580844 0.452505,-1.51881 1.005567,-2.084368 0.553062,-0.565558 1.490171,-2.253897 2.082466,-3.751862 0.592295,-1.497966 1.533853,-3.248835 2.092351,-3.890821 0.5585,-0.641985 1.897519,-2.181357 2.975601,-3.420827 1.078081,-1.239469 1.960576,-2.465078 1.961098,-2.723574 5.23e-4,-0.258496 0.875957,-1.487438 1.94541,-2.73098 1.069454,-1.243542 1.94446,-2.516775 1.94446,-2.829406 0,-0.756581 8.041254,-9.305643 8.752896,-9.305643 0.305939,0 2.832382,-2.27613 5.614319,-5.058067 2.781936,-2.781936 5.425715,-5.058066 5.875063,-5.058066 0.449349,0 1.018559,-0.525261 1.264912,-1.167246 0.246353,-0.641986 0.781631,-1.167246 1.189506,-1.167246 0.726768,0 6.903885,-4.35306 9.208031,-6.488967 0.641986,-0.59511 2.480398,-1.506746 4.085362,-2.025859 1.604963,-0.519111 2.918115,-1.221348 2.918115,-1.560525 0,-0.339176 1.575782,-1.057876 3.501739,-1.59711 1.925956,-0.539235 3.501738,-1.228216 3.501738,-1.531069 0,-0.302853 2.013499,-1.206213 4.474443,-2.007468 2.460944,-0.801253 4.824618,-1.693128 5.252608,-1.981944 0.42799,-0.288815 2.003772,-0.780293 3.501738,-1.092173 1.497968,-0.31188 4.190378,-1.22674 5.983158,-2.033024 1.81184,-0.814863 6.82333,-1.834198 11.28338,-2.295037 4.41308,-0.455987 8.63184,-1.157344 9.37502,-1.558571 1.76159,-0.951047 25.88672,-0.9501 27.64595,0.0011 0.74317,0.401824 5.35363,1.270901 10.24545,1.931282 4.89183,0.660381 9.09392,1.515054 9.33797,1.899273 0.24406,0.38422 2.45724,1.146649 4.91819,1.694287 2.46094,0.547637 4.47444,1.244646 4.47444,1.548908 0,0.304262 1.66332,0.998029 3.69628,1.541704 2.03295,0.543676 4.04645,1.410729 4.47444,1.926785 0.42799,0.516057 2.09132,1.412695 3.69628,1.992529 1.60496,0.579835 2.91812,1.305931 2.91812,1.613547 0,0.307615 1.75087,1.140847 3.89082,1.851624 2.13995,0.710777 3.89082,1.614354 3.89082,2.007949 0,0.393598 0.37878,0.715629 0.84174,0.715629 0.46296,0 2.33744,1.225609 4.16551,2.723574 1.82806,1.497966 3.72541,2.723575 4.21632,2.723575 0.49091,0 0.89256,0.357681 0.89256,0.794847 0,0.437165 0.85617,1.184945 1.9026,1.66173 1.04643,0.476786 2.0677,1.297117 2.26948,1.822956 0.20179,0.52584 -1.52961,3.01717 -3.84753,5.536288 -5.69941,6.194096 -6.54462,7.207021 -6.58149,7.887412 -0.0174,0.320992 -1.06791,1.796004 -2.33449,3.277803 -1.26658,1.481798 -2.30287,3.132803 -2.30287,3.6689 0,0.536097 -0.70034,1.349536 -1.55633,1.807642 -0.85598,0.458107 -1.55632,1.32085 -1.55632,1.917206 0,0.596356 -0.44392,1.547014 -0.98649,2.112572 -0.54257,0.565559 -1.64628,2.516528 -2.45268,4.335486 -0.8064,1.818959 -1.70713,3.307198 -2.00161,3.307198 -0.29449,0 -0.9977,1.400695 -1.5627,3.112656 -0.565,1.711961 -1.2682,3.112656 -1.56267,3.112656 -0.59003,0 -3.10631,7.321484 -3.10631,9.038244 0,0.592844 -0.31121,1.077889 -0.69157,1.077889 -0.38036,0 -0.93737,1.313152 -1.23781,2.918116 -0.30044,1.604963 -1.20817,4.372488 -2.01718,6.150056 -0.80901,1.777564 -1.88733,6.679994 -2.39628,10.894294 -0.50895,4.2143 -1.30352,7.91259 -1.7657,8.21844 -1.19387,0.79002 -1.166,39.36874 0.029,40.13163 0.47814,0.30524 1.11832,3.0062 1.42263,6.00213 0.60013,5.90839 1.87714,11.98915 2.77815,13.22879 0.31107,0.42799 1.02708,2.61658 1.59113,4.86353 0.56404,2.24695 1.25378,4.08536 1.53276,4.08536 0.27897,0 0.93826,1.92609 1.46508,4.28019 0.52683,2.3541 1.38523,4.71778 1.90756,5.25261 0.52234,0.53483 1.44029,2.19802 2.03991,3.69599 0.5996,1.49797 1.30927,2.89866 1.57704,3.11266 0.26777,0.21399 1.08092,1.89786 1.80701,3.74193 1.28898,3.27361 1.8747,4.19504 4.54454,7.14924 0.71658,0.79291 1.72804,2.25604 2.24768,3.25142 0.93147,1.78423 1.44053,2.4389 4.58404,5.89513 0.87584,0.96298 1.59245,1.95827 1.59245,2.21175 0,0.6673 2.51621,3.76647 7.45802,9.1859 2.38188,2.61209 5.96787,6.60105 7.96885,8.86434 2.00098,2.26329 5.82673,6.38995 8.50167,9.17036 2.67494,2.78039 4.86353,5.27412 4.86353,5.54161 0,0.26748 1.83841,2.45696 4.08536,4.86549 2.24695,2.40854 6.1864,6.75481 8.75435,9.65841 2.56794,2.90359 6.41985,7.16313 8.5598,9.46564 7.36493,7.9244 13.01539,14.283 14.21752,15.99928 0.6626,0.946 2.54962,2.93502 4.19336,4.42004 1.64375,1.48503 2.98863,3.01036 2.98863,3.38963 0,0.37927 2.25344,3.05237 5.00765,5.94023 2.7542,2.88785 6.5981,7.0015 8.54199,9.14146 1.94389,2.13995 4.89434,5.37108 6.55655,7.18029 1.66221,1.8092 4.37808,4.96077 6.03526,7.00347 1.65719,2.04271 3.2598,3.82343 3.56137,3.95719 0.58444,0.25919 0.0328,0.9831 -4.69378,6.15895 -1.65216,1.8092 -4.36578,4.95899 -6.03029,6.99954 -1.66451,2.04054 -4.33954,4.92305 -5.9445,6.40557 -1.60496,1.48251 -2.91811,2.9604 -2.91811,3.28419 0,0.3238 -2.18859,2.85423 -4.86353,5.6232 -2.67494,2.76895 -6.43931,6.87602 -8.36526,9.1268 -1.92596,2.25077 -5.60279,6.40956 -8.17073,9.24174 -2.56794,2.83219 -6.59494,7.33803 -8.94888,10.01297 -2.35395,2.67495 -5.85569,6.5634 -7.78164,8.641 -1.92596,2.07762 -4.16719,4.59486 -4.98052,5.59388 -2.06713,2.5391 -8.49049,9.62745 -13.00706,14.35365 -2.09056,2.18759 -3.80102,4.36385 -3.80102,4.83614 0,1.5506 -2.63145,2.4117 -4.09642,1.34049 z"
         id="path1845" />
      <path
         style="fill:#ff5555;fill-opacity:0.966667;stroke:#000000;stroke-width:3.89082"
         d="m 223.72217,421.9643 c -3.42392,-3.86783 -14.27931,-16.02892 -24.12308,-27.02465 -9.84378,-10.99572 -23.64955,-26.44171 -30.6795,-34.32442 -7.02994,-7.88272 -14.90885,-16.63871 -17.50869,-19.45775 -2.59983,-2.81904 -9.45432,-10.48026 -15.23219,-17.02494 -5.77786,-6.54467 -12.95876,-14.56831 -15.95755,-17.8303 -2.99878,-3.262 -9.30191,-10.29188 -14.00695,-15.62197 -4.70504,-5.33008 -10.655661,-12.00566 -13.223602,-14.83462 -2.567942,-2.82896 -8.170723,-9.10006 -12.450626,-13.93578 C 76.26008,257.07415 68.906429,248.89227 64.198537,243.72791 52.162543,230.52493 43.58212,220.61117 40.853614,216.75536 c -1.283971,-1.81445 -3.256532,-4.40339 -4.383468,-5.7532 -4.340546,-5.19894 -13.165205,-21.82342 -15.140507,-28.52268 -4.739753,-16.07494 -5.818327,-20.82683 -6.623479,-29.18116 -0.988804,-10.25993 -0.455655,-32.22377 0.906678,-37.35187 0.4548,-1.71196 1.313306,-5.2137 1.90779,-7.78164 1.598412,-6.90452 6.177603,-19.374766 8.653842,-23.566509 1.192165,-2.018081 3.31328,-5.892224 4.713588,-8.609209 1.40031,-2.716985 3.515065,-6.100038 4.699458,-7.517897 1.184393,-1.417858 3.028876,-3.922217 4.098852,-5.565243 2.948347,-4.5274 18.947015,-19.940389 26.846661,-25.863858 10.032518,-7.522781 18.803287,-11.88856 34.239221,-17.04307 13.12942,-4.384298 23.61697,-5.979381 39.29728,-5.976838 13.29768,0.0022 26.86617,1.851093 35.01739,4.77171 14.82423,5.311584 26.14618,11.053662 37.1593,18.845832 l 4.80614,3.400508 -4.83582,5.668149 c -5.15537,6.042702 -10.67135,13.567819 -13.67606,18.657398 -4.23344,7.170879 -8.90639,16.423617 -10.17214,20.14146 -0.74556,2.189895 -2.32194,6.783017 -3.50307,10.206939 -8.05789,23.358598 -8.13282,62.754308 -0.16354,85.987128 1.10106,3.20993 2.67417,7.76219 3.49579,10.11614 2.34726,6.72491 9.92892,20.90333 14.14772,26.45757 2.11306,2.78194 5.03032,6.74021 6.48279,8.79616 1.45249,2.05595 7.14873,8.68279 12.65833,14.7263 5.5096,6.04352 12.81884,14.19627 16.24277,18.11724 3.42392,3.92096 14.10422,15.7832 23.734,26.36052 9.62978,10.57733 18.2512,20.24907 19.15872,21.49276 0.90751,1.24369 5.63486,6.56777 10.50521,11.83129 11.19228,12.09578 17.80408,19.68631 17.80408,20.43959 0,0.3227 -3.58928,4.61644 -7.97618,9.54164 -4.3869,4.92521 -10.07723,11.31992 -12.64517,14.21046 -2.56794,2.89055 -10.4396,11.68949 -17.49257,19.5532 -25.53041,28.46514 -40.72582,45.42652 -40.79705,45.53838 -0.04,0.0628 -2.87408,-3.05042 -6.298,-6.91826 z"
         id="path2299" />
      <path
         style="fill:#784421;fill-opacity:0.966667;stroke:#000000;stroke-width:3.89082"
         d="m 226.57778,423.7644 c -1.70804,-1.46131 -2.24058,-2.33417 -1.56208,-2.56034 0.63509,-0.2117 -3.75205,-5.68504 -11.45183,-14.28718 -6.86472,-7.66921 -29.25859,-32.67832 -49.76416,-55.5758 C 143.29414,328.4436 119.15576,301.48022 110.15888,291.42245 101.16199,281.36468 84.837632,263.15564 73.882522,250.95792 40.667213,213.97507 35.354721,207.07117 27.733279,190.98427 c -3.99435,-8.43104 -7.732225,-20.36447 -9.976194,-31.84972 -0.62286,-3.18796 -0.970828,-11.24377 -0.94115,-21.78859 0.04324,-15.36498 0.214781,-17.4119 2.101659,-25.07869 C 24.600272,89.177333 35.85362,68.824812 51.11871,54.029139 68.51068,37.171991 77.834776,30.952738 95.714182,24.283578 c 15.658548,-5.840764 25.736538,-7.605095 43.453998,-7.607394 20.37635,-0.0026 29.4503,1.685526 45.40696,8.447765 8.06646,3.418464 22.13318,11.168041 27.00476,14.877339 l 1.86468,1.419795 -5.31388,6.525202 c -17.39887,21.365037 -27.72671,45.769999 -30.65726,72.443935 -1.04998,9.55691 -1.05942,28.46115 -0.0188,37.54556 3.07391,26.83337 14.52988,52.99899 32.54616,74.33598 3.64321,4.31471 16.62782,18.87229 47.93174,53.73822 36.71506,40.8928 47.50565,53.02031 47.73309,53.64703 0.12994,0.3581 -3.89706,5.33372 -8.94889,11.05695 -11.94308,13.53032 -67.30273,75.34039 -67.4411,75.29925 -0.0585,-0.0174 -1.27256,-1.02936 -2.69791,-2.24881 z"
         id="path2788" />
      <path
         style="fill:#ff0000;fill-opacity:0.966667;stroke:#000000;stroke-width:3.89082"
         d="m 409.98791,430.29911 c -0.58448,-0.7259 -3.25127,-3.6185 -5.92621,-6.428 -2.67494,-2.80949 -4.86353,-5.31643 -4.86353,-5.57097 0,-0.25454 -1.91808,-2.38048 -4.2624,-4.72432 -2.34432,-2.34383 -4.27028,-4.50355 -4.2799,-4.79937 -0.01,-0.29582 -1.50574,-2.09923 -3.3247,-4.00757 -1.81896,-1.90836 -5.58333,-6.00587 -8.36526,-9.10561 -2.78194,-3.09973 -7.13333,-7.87234 -9.66976,-10.60579 -2.53642,-2.73345 -5.1266,-5.70507 -5.75595,-6.60358 -0.62934,-0.89852 -2.66863,-3.06815 -4.53174,-4.82141 -1.86311,-1.75326 -3.38748,-3.43847 -3.38748,-3.74492 0,-0.30645 -1.48823,-2.13876 -3.30719,-4.0718 -4.32846,-4.59993 -12.10623,-13.19494 -15.87435,-17.54234 -1.64787,-1.90121 -3.95911,-4.39033 -5.13608,-5.5314 -1.17698,-1.14106 -2.13995,-2.41182 -2.13995,-2.82391 0,-0.67374 2.62011,-3.57178 13.67845,-15.1294 1.89263,-1.9781 3.44116,-3.79675 3.44116,-4.04146 0,-0.24471 2.10104,-2.58549 4.66898,-5.20173 2.56794,-2.61623 4.66898,-5.06735 4.66898,-5.44693 0,-0.37957 0.61281,-1.1477 1.36179,-1.70696 0.74898,-0.55925 2.71225,-2.59261 4.36281,-4.51857 2.9379,-3.42809 8.89896,-9.97032 15.74589,-17.28101 1.88692,-2.01473 3.43077,-3.85995 3.43077,-4.10048 0,-0.24053 1.88177,-2.44403 4.18171,-4.89666 3.99331,-4.25841 10.89328,-11.89988 17.87188,-19.79244 1.7802,-2.01336 5.42532,-5.92782 8.10026,-8.6988 2.67494,-2.77098 4.86353,-5.34019 4.86353,-5.70934 0,-0.36915 1.31315,-1.89113 2.91811,-3.38216 1.60497,-1.49104 3.8508,-3.92784 4.99073,-5.41513 1.13993,-1.48728 3.14296,-3.92976 4.45118,-5.42773 1.30821,-1.49796 2.9143,-3.33638 3.56908,-4.08536 0.65478,-0.74898 1.19133,-1.62442 1.19234,-1.94541 7.8e-4,-0.32099 1.0507,-1.80923 2.33266,-3.3072 1.28196,-1.49796 2.33166,-3.14897 2.33266,-3.6689 7.8e-4,-0.51993 0.6619,-1.29859 1.46865,-1.73034 0.80675,-0.43176 1.68886,-1.66969 1.96023,-2.75095 0.27139,-1.08127 0.83693,-1.96594 1.25676,-1.96594 0.41984,0 0.76334,-0.37753 0.76334,-0.83896 0,-1.09542 5.52697,-12.65837 6.30002,-13.18024 0.32697,-0.22074 1.18684,-2.7595 1.91083,-5.64169 0.72398,-2.8822 1.57608,-5.24036 1.89356,-5.24036 0.31747,0 1.03429,-2.18859 1.59291,-4.86353 0.55863,-2.67494 1.32434,-5.0701 1.70159,-5.32259 0.37726,-0.25249 1.26742,-5.33001 1.97815,-11.28338 0.71073,-5.95337 1.56865,-10.94103 1.90648,-11.0837 0.80864,-0.34149 0.8,-28.92176 -0.009,-28.92176 -0.34264,0 -1.23621,-4.45069 -1.98571,-9.89042 -0.7495,-5.43973 -1.64965,-10.25462 -2.00033,-10.69976 -0.35068,-0.44513 -1.0991,-2.64775 -1.66314,-4.894697 -0.56404,-2.246949 -1.26166,-4.085361 -1.55026,-4.085361 -0.2886,0 -0.97674,-2.13003 -1.52922,-4.733401 -0.55247,-2.603374 -1.47575,-5.204665 -2.05173,-5.78065 -0.57599,-0.575984 -1.04725,-1.369658 -1.04725,-1.763719 0,-0.856291 -5.44885,-11.287558 -6.18749,-11.845317 -0.2834,-0.213995 -1.00303,-1.61469 -1.59919,-3.112656 -0.59615,-1.497966 -1.71435,-3.181148 -2.48485,-3.740405 -0.77052,-0.559256 -1.40093,-1.504834 -1.40093,-2.101284 0,-0.596449 -0.44264,-1.364484 -0.98362,-1.706744 -0.541,-0.342259 -2.37941,-2.715298 -4.08537,-5.27342 -1.70596,-2.558121 -4.90846,-6.496292 -7.11669,-8.751491 l -4.01495,-4.100362 2.45862,-1.728113 c 1.35225,-0.950461 2.92136,-2.177354 3.48692,-2.726428 0.56555,-0.549074 1.2659,-0.999138 1.55633,-1.000142 0.29042,-10e-4 1.75364,-1.049633 3.25161,-2.330287 3.22331,-2.755702 21.85341,-12.203426 25.48487,-12.923933 1.39097,-0.275977 2.52904,-0.741979 2.52904,-1.035559 0,-0.29358 1.83841,-1.000093 4.08536,-1.570029 2.24695,-0.569936 4.28849,-1.348417 4.53676,-1.729958 0.24826,-0.381541 4.62544,-1.273615 9.72705,-1.982387 5.10161,-0.708773 9.39238,-1.572274 9.53504,-1.918893 0.36196,-0.879428 27.08127,-0.793484 28.73778,0.09244 0.74318,0.397458 5.02664,1.128289 9.51881,1.624069 4.49216,0.49578 9.56968,1.539527 11.28338,2.31944 1.71369,0.779912 4.42895,1.663834 6.03391,1.964271 1.60497,0.300438 2.91812,0.783147 2.91812,1.072688 0,0.28954 2.27608,1.213547 5.05797,2.053348 2.78189,0.839801 5.05802,1.775485 5.05807,2.079297 5e-5,0.303813 1.40079,0.972046 3.11275,1.484961 1.71196,0.512916 3.11266,1.179747 3.11266,1.481846 0,0.302099 1.66332,1.180304 3.69628,1.951566 2.03295,0.771263 4.15385,2.044445 4.7131,2.829293 0.55926,0.78485 1.34715,1.426999 1.75087,1.426999 0.40373,0 1.34685,0.534049 2.09583,1.186774 4.50538,3.92636 5.93382,5.038539 6.47132,5.038539 0.3313,0 2.11858,1.569999 3.97174,3.488885 1.85314,1.918888 3.64495,3.49467 3.9818,3.501739 0.60661,0.01273 8.27449,7.640087 10.83096,10.773726 0.73,0.894812 2.50445,3.33824 3.94322,5.429838 2.62267,3.812701 3.76175,5.284113 6.1033,7.884024 0.69171,0.768035 1.87735,3.019066 2.63475,5.002292 0.75741,1.983225 1.64174,3.605864 1.96518,3.605864 0.32344,0 0.79159,0.81086 1.04034,1.801911 0.24874,0.991051 1.12752,2.580501 1.95284,3.532112 0.82533,0.951611 1.96183,3.292316 2.52557,5.201564 0.56374,1.909249 1.24297,3.471366 1.50943,3.471366 0.26644,0 0.93251,2.0135 1.48015,4.474444 0.54763,2.460944 1.27163,4.65037 1.60887,4.86539 0.698,0.44504 3.09023,11.44211 3.09023,14.20573 0,1.00242 0.43772,2.2606 0.9727,2.79594 0.725,0.72548 0.97271,5.80864 0.97271,19.9602 0,14.15206 -0.24769,19.23444 -0.97271,19.95925 -0.53498,0.53483 -0.9727,1.94295 -0.9727,3.12916 0,2.72917 -2.44589,14.13259 -3.14258,14.6516 -0.28726,0.214 -0.97414,2.31504 -1.52641,4.66899 -0.55227,2.35394 -1.25182,4.45499 -1.55456,4.66898 -0.30274,0.214 -1.15548,2.2275 -1.89497,4.47445 -0.73949,2.24695 -1.61113,4.08536 -1.93698,4.08536 -0.32585,0 -1.01211,1.40069 -1.52502,3.11265 -0.51292,1.71197 -1.19835,3.11266 -1.52318,3.11266 -0.32484,0 -1.01797,1.18187 -1.54031,2.62637 -0.52234,1.44449 -1.82825,3.63308 -2.90202,4.86352 -2.59134,2.96944 -2.94788,3.43829 -4.67535,6.14821 -0.8114,1.27285 -1.92139,2.59429 -2.46665,2.93655 -0.54526,0.34226 -0.99139,1.00576 -0.99139,1.47444 0,0.46868 -0.69805,1.58934 -1.55121,2.49036 -5.88095,6.2108 -8.55763,9.16462 -11.71999,12.93349 -1.98062,2.36047 -4.70728,5.33582 -6.05926,6.61186 -1.35197,1.27605 -2.45813,2.58195 -2.45813,2.902 0,0.32005 -2.10104,2.63143 -4.66898,5.13639 -2.56795,2.50497 -4.66899,4.83541 -4.66899,5.17877 0,0.34336 -1.66333,2.30876 -3.69628,4.36756 -5.17519,5.24101 -12.4295,13.26739 -13.93907,15.42258 -0.69801,0.99656 -2.79348,3.2464 -4.65659,4.99966 -1.86311,1.75326 -3.38747,3.43847 -3.38747,3.74492 0,0.30645 -1.48824,2.10843 -3.3072,4.00441 -4.56166,4.75483 -13.3112,14.55025 -13.94573,15.61275 -0.47784,0.80013 -3.16265,3.68815 -13.94386,14.99925 -2.10133,2.20461 -3.8206,4.22732 -3.8206,4.49492 0,0.2676 -1.48824,2.02908 -3.30719,3.9144 -5.02118,5.20437 -13.35316,14.48024 -13.97763,15.56107 -0.51751,0.89572 -5.25866,6.01586 -13.47126,14.54815 -1.91573,1.99029 -3.48314,3.93066 -3.48314,4.31192 0,0.38126 -1.31315,1.9057 -2.91811,3.38764 -1.60497,1.48194 -3.73728,3.74366 -4.73847,5.02605 -1.00119,1.28238 -3.91371,4.60774 -6.47225,7.38968 -2.55855,2.78194 -6.64182,7.28397 -9.07394,10.00453 -2.43213,2.72055 -6.08538,6.62835 -8.11833,8.68399 -2.03295,2.05564 -3.69628,4.04315 -3.69628,4.41669 0,0.37353 -1.92596,2.55106 -4.2799,4.83895 -2.35395,2.28789 -4.27991,4.44613 -4.27991,4.79611 0,0.34997 -2.10104,2.69223 -4.66898,5.20502 -2.56794,2.51278 -4.66898,4.82163 -4.66898,5.13077 0,0.30914 -1.66333,2.25056 -3.69628,4.31428 -2.03296,2.06371 -4.61877,4.87995 -5.74626,6.25831 -1.88174,2.30045 -2.13718,2.39781 -3.11265,1.18629 z"
         id="path2827" />
      <path
         style="fill:#ff0000;fill-opacity:0.966667;stroke:#000000;stroke-width:3.89082"
         d="m 317.42429,326.85682 c -3.08923,-3.10456 -6.82494,-7.21738 -12.74796,-14.03486 -4.01756,-4.62426 -10.99176,-12.22378 -14.61567,-15.92616 -2.03295,-2.07698 -3.69628,-4.08501 -3.69628,-4.46231 0,-0.3773 -1.31315,-1.89849 -2.91811,-3.38043 -1.60497,-1.48194 -3.73728,-3.74366 -4.73847,-5.02605 -1.00119,-1.28238 -3.91371,-4.60774 -6.47225,-7.38968 -2.55855,-2.78194 -6.64182,-7.29021 -9.07395,-10.01837 -2.43212,-2.72817 -6.08537,-6.65684 -8.11832,-8.73037 -2.03296,-2.07355 -3.69628,-4.09029 -3.69628,-4.48166 0,-0.39138 -1.31315,-1.90834 -2.91812,-3.37103 -1.60496,-1.4627 -4.31881,-4.38706 -6.03077,-6.49859 -1.71196,-2.11152 -4.42581,-5.11663 -6.03077,-6.67801 -1.60496,-1.56138 -2.91812,-3.08984 -2.91812,-3.39658 0,-0.30674 -1.57519,-2.18613 -3.50044,-4.17642 -6.02532,-6.2289 -9.72835,-10.40014 -9.72835,-10.95838 0,-0.29567 -0.6408,-1.22542 -1.42401,-2.06609 -0.7832,-0.84068 -2.09635,-2.56989 -2.91811,-3.8427 -1.445,-2.23814 -2.3443,-3.41366 -5.1564,-6.74014 -0.73029,-0.86388 -1.69701,-2.68939 -2.14826,-4.05669 -0.45125,-1.36731 -2.3925,-5.5925 -4.31389,-9.38931 -1.92138,-3.7968 -3.49343,-7.54459 -3.49343,-8.3284 0,-0.78381 -0.28011,-1.42511 -0.62247,-1.42511 -0.34236,0 -1.07154,-2.1742 -1.62041,-4.83156 -0.54887,-2.65735 -1.46543,-5.73558 -2.03681,-6.84049 -0.57137,-1.10492 -1.46685,-5.67157 -1.98994,-10.14811 -0.5231,-4.47654 -1.25238,-8.47183 -1.62063,-8.87842 -0.87179,-0.96256 -0.87623,-27.66373 -0.005,-27.66373 0.36572,0 1.10079,-3.67762 1.63349,-8.17249 0.5327,-4.49486 1.25474,-8.34936 1.60454,-8.56555 0.3498,-0.21619 1.25453,-3.01678 2.01053,-6.22354 0.756,-3.20677 1.61691,-5.83049 1.91315,-5.83049 0.29624,0 0.75866,-1.138065 1.02761,-2.529033 0.52518,-2.716151 4.92946,-12.020155 6.44299,-13.610759 0.50534,-0.531076 1.32435,-2.194402 1.82001,-3.69628 0.49566,-1.501877 1.22423,-2.730687 1.61902,-2.730687 0.3948,0 0.71864,-0.437717 0.71965,-0.972705 0.001,-0.534987 1.0507,-2.198313 2.33266,-3.696279 1.28196,-1.497966 2.33166,-3.044373 2.33267,-3.43646 0.001,-0.392087 0.52045,-1.267522 1.15433,-1.94541 2.94374,-3.148118 5.07281,-5.788307 5.07281,-6.290632 0,-0.736534 10.13407,-10.894256 10.86888,-10.894256 0.51427,0 1.96538,-1.134397 6.44527,-5.038539 0.74898,-0.652725 1.70899,-1.186774 2.13335,-1.186774 0.42437,0 1.20895,-0.700348 1.74352,-1.556328 0.53457,-0.855981 1.28936,-1.556328 1.67732,-1.556328 0.38795,0 2.20107,-1.225609 4.02914,-2.723575 1.82807,-1.497965 3.70254,-2.723574 4.1655,-2.723574 0.46296,0 0.84174,-0.279828 0.84174,-0.62184 0,-0.342012 1.31316,-1.085423 2.91812,-1.652025 1.60496,-0.566603 3.44338,-1.469319 4.08536,-2.006037 0.64199,-0.536719 2.4804,-1.439435 4.08536,-2.006037 1.60497,-0.566603 2.91812,-1.262079 2.91812,-1.545503 0,-0.283424 2.0135,-1.136676 4.47444,-1.896115 2.46094,-0.75944 4.82462,-1.619733 5.25261,-1.911765 0.42799,-0.292032 2.35394,-1.017075 4.2799,-1.611207 1.92596,-0.594132 3.70487,-1.369488 3.95314,-1.723014 0.24826,-0.353526 4.62544,-1.185912 9.72705,-1.849746 5.10161,-0.663835 9.8837,-1.527337 10.62688,-1.918893 1.64582,-0.867133 27.59498,-0.960126 27.95962,-0.100197 0.14266,0.336447 4.63556,1.208867 9.9842,1.938711 5.34865,0.729844 9.83586,1.660097 9.97157,2.067228 0.13571,0.407132 2.15022,1.166217 4.47668,1.686856 2.32646,0.52064 4.22993,1.241068 4.22993,1.600952 0,0.359884 0.48504,0.654335 1.07788,0.654335 1.9082,0 9.03825,2.548749 9.03825,3.230865 0,0.362975 0.38366,0.659955 0.85258,0.659955 0.46892,0 1.80227,0.676235 2.96299,1.502744 1.16073,0.826509 3.66599,2.123225 5.56727,2.881591 1.90128,0.758365 3.80704,1.662093 4.23503,2.008283 3.5135,2.841978 6.92381,5.279844 7.38593,5.279844 0.50799,0 3.13763,2.11834 6.29722,5.072804 0.67789,0.63388 1.56202,1.152508 1.96473,1.152508 0.40272,0 2.21508,1.575783 4.02748,3.501739 1.81239,1.925956 3.55457,3.503137 3.8715,3.504847 0.81535,0.0044 6.63623,6.202416 8.42051,8.966081 1.49751,2.319482 2.31894,3.385034 5.58374,7.243094 0.96555,1.141015 1.95212,2.687376 2.19238,3.436359 0.24026,0.748983 0.78163,1.361787 1.20304,1.361787 0.42141,0 1.13242,1.050522 1.58001,2.334492 0.4476,1.283971 1.06055,2.334493 1.36213,2.334493 0.30158,0 1.17792,1.750869 1.94744,3.89082 0.76951,2.139951 1.6863,3.89082 2.03731,3.89082 0.351,0 0.86845,1.048436 1.1499,2.329857 0.28144,1.281422 0.93995,2.594574 1.46334,2.918115 0.94737,0.585641 3.59574,7.962406 3.59574,10.015585 0,0.592844 0.29445,1.077889 0.65434,1.077889 0.35988,0 1.1024,2.013504 1.65004,4.474444 0.54763,2.46094 1.24089,4.64953 1.54056,4.86353 1.18946,0.84938 3.18517,20.41773 3.1745,31.12656 -0.0109,10.95449 -1.98393,31.11824 -3.12188,31.90473 -0.30963,0.21399 -1.02927,2.22749 -1.5992,4.47444 -0.56994,2.24695 -1.27467,4.08536 -1.56606,4.08536 -0.2914,0 -0.94136,2.09185 -1.44436,4.64853 -0.50299,2.5567 -1.35123,5.09546 -1.88497,5.64169 -0.53374,0.54624 -1.46102,2.21877 -2.06064,3.71673 -0.5996,1.49797 -1.31728,2.89867 -1.59482,3.11266 -0.27755,0.214 -1.13289,2.05241 -1.90077,4.08536 -0.76788,2.03296 -1.69875,3.69628 -2.06859,3.69628 -0.36985,0 -0.67244,0.34715 -0.67244,0.77143 0,0.78016 -4.472,7.13964 -6.61711,9.40998 -0.6405,0.67789 -1.16453,1.62347 -1.16453,2.10129 0,0.47781 -0.44613,1.14879 -0.99139,1.49105 -0.54526,0.34226 -1.56592,1.52736 -2.26812,2.63356 -0.70221,1.10621 -2.61976,3.45184 -4.26122,5.21253 -1.64147,1.76069 -4.73536,5.16174 -6.87531,7.55788 -2.13995,2.39615 -5.09909,5.65329 -6.57586,7.2381 -1.47677,1.5848 -4.79134,5.33268 -7.36573,8.32862 -2.57437,2.99593 -5.30556,5.90472 -6.0693,6.46397 -0.76374,0.55926 -1.38862,1.34524 -1.38862,1.74664 0,0.40138 -2.10105,2.77931 -4.66899,5.28428 -2.56794,2.50496 -4.66898,4.83541 -4.66898,5.17876 0,0.34336 -1.66333,2.30876 -3.69628,4.36757 -5.16984,5.23558 -12.42896,13.2666 -13.93502,15.4168 -0.6958,0.99338 -2.6156,3.07684 -4.26624,4.6299 -1.65063,1.55307 -3.00173,3.1001 -3.00244,3.43785 -7e-4,0.33776 -1.6646,2.29483 -3.69755,4.34905 -4.21398,4.25806 -12.5106,13.57747 -14.0998,15.83798 -0.58605,0.83361 -2.59955,2.92965 -4.47444,4.65787 -1.87489,1.72822 -3.4089,3.43187 -3.4089,3.7859 0,0.35402 -0.8118,1.44749 -1.80401,2.42993 -4.02426,3.98459 -3.89654,3.98026 -7.60061,0.25781 z"
         id="path2903" />
      <path
         style="fill:#552200;fill-opacity:0.966667;stroke:#000000;stroke-width:3.89082"
         d="m 311.54713,316.90732 c -5.0662,-5.67087 -11.49171,-12.77481 -14.2789,-15.78653 -2.78719,-3.01172 -8.74444,-9.65269 -13.23834,-14.75772 -4.4939,-5.10502 -12.02765,-13.49628 -16.74168,-18.64724 -4.71402,-5.15094 -12.41785,-13.7182 -17.11961,-19.03834 -4.70176,-5.32014 -12.76235,-14.42466 -17.91241,-20.23227 -13.89139,-15.66498 -19.73531,-23.87847 -24.78311,-34.83208 -2.40474,-5.21822 -4.37226,-9.96307 -4.37226,-10.54412 0,-0.58104 -0.30627,-1.38911 -0.68061,-1.7957 -1.07533,-1.16799 -4.65668,-14.53796 -6.10443,-22.7892 -1.82649,-10.40985 -1.7851,-30.56079 0.0842,-40.98134 2.31014,-12.87825 8.36925,-29.542064 14.43032,-39.686372 1.27859,-2.139951 2.56949,-4.376199 2.86868,-4.969441 3.89185,-7.717019 16.69055,-22.29499 24.67255,-28.102532 2.05884,-1.497966 4.8576,-3.633998 6.21947,-4.746737 8.02769,-6.559168 22.15628,-14.241626 34.38085,-18.694691 3.42392,-1.247238 6.92566,-2.600671 7.78164,-3.00763 0.85598,-0.406958 6.85863,-1.644295 13.33923,-2.749637 14.49052,-2.471532 29.08388,-2.409463 42.68859,0.181563 8.67661,1.652468 18.06601,4.425267 19.41519,5.733534 0.40659,0.394261 1.50792,0.716839 2.44739,0.716839 2.08363,0 20.61729,9.485692 24.55016,12.564982 1.55956,1.221075 3.05274,2.220136 3.31819,2.220136 0.68314,0 8.34281,6.274082 15.43959,12.646659 6.68524,6.003032 15.0528,16.299032 20.33142,25.01711 3.41287,5.636632 9.84374,19.060961 10.31228,21.526675 0.27942,1.470481 0.76171,3.023774 1.07174,3.451764 1.18428,1.634848 3.93722,11.511738 4.82218,17.300828 1.21683,7.96018 1.21106,36.1836 -0.009,44.56322 -0.52973,3.63791 -1.85686,9.06561 -2.94919,12.06154 -1.09232,2.99593 -2.46298,7.14778 -3.0459,9.22633 -1.35479,4.83082 -7.62795,17.4174 -11.69319,23.46139 -7.56433,11.24627 -9.5334,13.61166 -32.65191,39.22361 -8.98779,9.95717 -17.91723,19.96987 -19.84318,22.25044 -1.92596,2.28056 -6.18677,7.06456 -9.46847,10.63109 -5.54098,6.0219 -17.25477,19.11468 -35.97708,40.21242 -4.23754,4.77517 -7.79198,8.68213 -7.89879,8.68213 -0.1068,0 -4.33926,-4.63981 -9.40547,-10.31068 z"
         id="path3055" />
      <path
         style="fill:#eeaaff;fill-opacity:0.966667;stroke:#000000;stroke-width:3.89082"
         d="m 401.14358,416.97316 c -5.13588,-5.81075 -14.76566,-16.59391 -21.39951,-23.96258 -20.14911,-22.38101 -43.79708,-48.81489 -45.805,-51.20117 l -1.89584,-2.25308 4.62707,-4.80738 c 2.54489,-2.64406 6.32185,-6.73334 8.39325,-9.08728 7.505,-8.52872 11.58707,-13.06535 23.10644,-25.67942 6.44898,-7.06184 12.30417,-13.71514 13.01154,-14.78511 0.70736,-1.06998 2.33664,-3.01601 3.62061,-4.32452 1.28397,-1.30851 5.48605,-5.85926 9.33797,-10.11278 3.85191,-4.25351 10.6803,-11.78809 15.1742,-16.74351 15.75401,-17.37194 21.8988,-24.6569 27.71411,-32.85646 6.4106,-9.03893 7.62934,-11.05312 10.12492,-16.73315 1.37198,-3.12267 2.87102,-6.13126 3.33122,-6.68575 0.81793,-0.98556 3.16231,-7.4538 6.37753,-17.59599 0.88192,-2.78193 2.5328,-10.31067 3.66863,-16.73052 2.95046,-16.67637 2.95134,-35.11635 0.002,-50.19159 -1.13024,-5.77786 -2.97351,-13.13152 -4.09617,-16.341442 -1.12266,-3.209927 -2.52207,-7.495871 -3.10982,-9.52432 -1.23836,-4.274158 -10.77584,-22.783156 -12.96157,-25.154135 -0.81452,-0.883565 -1.48096,-1.849737 -1.48096,-2.147049 0,-0.736958 -9.74629,-13.566614 -12.57272,-16.55026 -2.58191,-2.725533 -2.97101,-2.126763 4.9435,-7.607294 6.30143,-4.363527 19.61983,-11.111771 28.63965,-14.511301 3.63792,-1.371114 7.31474,-2.812754 8.17072,-3.203644 0.85598,-0.390889 5.58333,-1.480104 10.50522,-2.420476 17.34472,-3.313872 43.98322,-1.964455 58.71684,2.974399 13.86567,4.647912 28.077,11.22509 33.94351,15.709483 1.53032,1.169785 4.33152,3.290167 6.2249,4.711961 12.39061,9.304499 27.24534,26.309578 33.42935,38.268534 1.43854,2.781937 3.20383,5.933501 3.92283,7.003477 1.50649,2.241834 5.0434,10.960705 5.83991,14.396035 0.29771,1.283972 0.80961,2.684662 1.13757,3.112652 0.32795,0.42799 1.17726,3.75465 1.88735,7.39256 0.71007,3.63792 1.64943,7.77373 2.08744,9.1907 0.89453,2.89378 1.09567,37.72339 0.22597,39.13058 -0.30505,0.49359 -1.04173,3.74263 -1.63707,7.2201 -2.46561,14.40203 -11.08409,34.24079 -19.89154,45.78806 -2.67584,3.50824 -5.56942,7.33903 -6.43018,8.51287 -0.86076,1.17384 -7.1678,8.30498 -14.01565,15.84698 -6.84784,7.542 -13.97621,15.52625 -15.84081,17.74276 -1.86461,2.21653 -5.71652,6.49753 -8.55981,9.51333 -2.84328,3.0158 -7.93212,8.61858 -11.3085,12.45062 -11.80821,13.40173 -22.70085,25.56867 -28.48941,31.82229 -5.2779,5.70193 -12.78989,14.08736 -27.23575,30.40256 -8.98463,10.14728 -28.8752,32.23136 -40.85361,45.35892 -6.41986,7.03574 -12.59954,13.99029 -13.73264,15.45455 -1.1331,1.46427 -6.60682,7.63805 -12.16383,13.71952 -5.55701,6.08146 -11.05173,12.19527 -12.21049,13.58624 -1.15877,1.39097 -2.33835,2.51485 -2.62129,2.49752 -0.28294,-0.0173 -4.71653,-4.78575 -9.85242,-10.59649 z"
         id="path3353" />
      <rect
         style="fill:none;fill-opacity:0.966667;stroke:#000000;stroke-width:5"
         id="rect4435"
         width="641"
         height="449.00031"
         x="-2"
         y="0" />
      <path
         style="fill:none;stroke:#000000;stroke-width:6.161;stroke-linecap:butt;stroke-linejoin:miter;stroke-miterlimit:4;stroke-dasharray:none;stroke-opacity:1"
         d="M 0.92638616,114.10708 C 0.73705935,130.98221 0.54774323,147.85639 0.3584377,164.72963"
         id="path5579"
         inkscape:path-effect="#path-effect5581"
         inkscape:original-d="M 0.92638616,114.10708 C 0.7411973,130.98226 0.5518805,147.85644 0.3584377,164.72963" />
      <rect
         style="fill:none;fill-opacity:0.966667;stroke:#000000;stroke-width:6.161;stroke-miterlimit:4;stroke-dasharray:none"
         id="rect6691"
         width="650.07874"
         height="453.5433"
         x="-6"
         y="-2" />
    </g>
  </g>
</svg>
